<?xml version="1.0" encoding="UTF-8" standalone="no"?>
<!DOCTYPE svg PUBLIC "-//W3C//DTD SVG 1.1//EN" "http://www.w3.org/Graphics/SVG/1.1/DTD/svg11.dtd">
<svg width="100%" height="100%" viewBox="0 0 800 800" version="1.1" xmlns="http://www.w3.org/2000/svg" xmlns:xlink="http://www.w3.org/1999/xlink" xml:space="preserve" xmlns:serif="http://www.serif.com/" style="fill-rule:evenodd;clip-rule:evenodd;stroke-linejoin:round;stroke-miterlimit:2;">
    <g transform="matrix(33.333333,0,0,33.333333,0,0)">
        <path d="M18,20.75L6,20.75C5.271,20.75 4.571,20.46 4.055,19.945C3.54,19.429 3.25,18.729 3.25,18L3.25,6C3.25,5.271 3.54,4.571 4.055,4.055C4.571,3.54 5.271,3.25 6,3.25L12,3.25C12.199,3.25 12.39,3.329 12.53,3.47C12.671,3.61 12.75,3.801 12.75,4C12.75,4.199 12.671,4.39 12.53,4.53C12.39,4.671 12.199,4.75 12,4.75L6,4.75C5.668,4.75 5.351,4.882 5.116,5.116C4.882,5.351 4.75,5.668 4.75,6L4.75,18C4.75,18.331 4.882,18.649 5.116,18.884C5.351,19.118 5.668,19.25 6,19.25L18,19.25C18.331,19.25 18.649,19.118 18.884,18.884C19.118,18.649 19.25,18.331 19.25,18L19.25,12C19.25,11.801 19.329,11.61 19.47,11.47C19.61,11.329 19.801,11.25 20,11.25C20.199,11.25 20.39,11.329 20.53,11.47C20.671,11.61 20.75,11.801 20.75,12L20.75,18C20.75,18.729 20.46,19.429 19.945,19.945C19.429,20.46 18.729,20.75 18,20.75Z" style="fill:white;fill-rule:nonzero;"/>
    </g>
    <g transform="matrix(33.333333,0,0,33.333333,0,0)">
        <path d="M20,8.75C19.802,8.747 19.613,8.668 19.473,8.527C19.332,8.387 19.253,8.198 19.25,8L19.25,4.75L16,4.75C15.801,4.75 15.61,4.671 15.47,4.53C15.329,4.39 15.25,4.199 15.25,4C15.25,3.801 15.329,3.61 15.47,3.47C15.61,3.329 15.801,3.25 16,3.25L20,3.25C20.198,3.253 20.387,3.332 20.527,3.473C20.668,3.613 20.747,3.802 20.75,4L20.75,8C20.747,8.198 20.668,8.387 20.527,8.527C20.387,8.668 20.198,8.747 20,8.75Z" style="fill:white;fill-rule:nonzero;"/>
    </g>
    <g transform="matrix(33.333333,0,0,33.333333,0,0)">
        <path d="M13.5,11.25C13.307,11.235 13.128,11.146 13,11C12.877,10.863 12.809,10.684 12.809,10.5C12.809,10.316 12.877,10.137 13,10L19.5,3.5C19.569,3.426 19.651,3.367 19.744,3.326C19.835,3.285 19.935,3.263 20.035,3.261C20.136,3.26 20.236,3.278 20.33,3.316C20.423,3.354 20.508,3.41 20.579,3.481C20.65,3.552 20.706,3.637 20.744,3.73C20.782,3.824 20.8,3.924 20.799,4.025C20.797,4.125 20.775,4.225 20.734,4.317C20.693,4.409 20.634,4.491 20.56,4.56L14,11C13.872,11.146 13.693,11.235 13.5,11.25Z" style="fill:white;fill-rule:nonzero;"/>
    </g>
</svg>
