<svg width="497" height="195" viewBox="0 0 497 195" fill="none" xmlns="http://www.w3.org/2000/svg">
<g clip-path="url(#clip0_4712_3816)">
<path d="M139.121 60.5163C142.34 60.5163 144.949 57.9138 144.949 54.7034C144.949 51.4931 142.34 48.8906 139.121 48.8906C135.903 48.8906 133.294 51.4931 133.294 54.7034C133.294 57.9138 135.903 60.5163 139.121 60.5163Z" fill="white"/>
<path d="M145.678 142.624C148.896 142.624 151.506 140.022 151.506 136.811C151.506 133.601 148.896 130.999 145.678 130.999C142.459 130.999 139.85 133.601 139.85 136.811C139.85 140.022 142.459 142.624 145.678 142.624Z" fill="white"/>
<path d="M140.787 75.0488C143.488 75.0488 145.678 72.8646 145.678 70.1702C145.678 67.4758 143.488 65.2915 140.787 65.2915C138.086 65.2915 135.896 67.4758 135.896 70.1702C135.896 72.8646 138.086 75.0488 140.787 75.0488Z" fill="white"/>
<path d="M153.797 76.9168C156.498 76.9168 158.688 74.7326 158.688 72.0381C158.688 69.3437 156.498 67.1595 153.797 67.1595C151.095 67.1595 148.906 69.3437 148.906 72.0381C148.906 74.7326 151.095 76.9168 153.797 76.9168Z" fill="white"/>
<path d="M139.122 87.401C141.421 87.401 143.285 85.542 143.285 83.2489C143.285 80.9558 141.421 79.0968 139.122 79.0968C136.823 79.0968 134.959 80.9558 134.959 83.2489C134.959 85.542 136.823 87.401 139.122 87.401Z" fill="white"/>
<path d="M152.13 89.1665C154.429 89.1665 156.293 87.3075 156.293 85.0144C156.293 82.7213 154.429 80.8623 152.13 80.8623C149.831 80.8623 147.967 82.7213 147.967 85.0144C147.967 87.3075 149.831 89.1665 152.13 89.1665Z" fill="white"/>
<path d="M162.537 93.2142C164.836 93.2142 166.7 91.3553 166.7 89.0622C166.7 86.769 164.836 84.9101 162.537 84.9101C160.238 84.9101 158.375 86.769 158.375 89.0622C158.375 91.3553 160.238 93.2142 162.537 93.2142Z" fill="white"/>
<path d="M148.28 99.1307C150.291 99.1307 151.922 97.5041 151.922 95.4977C151.922 93.4912 150.291 91.8646 148.28 91.8646C146.268 91.8646 144.637 93.4912 144.637 95.4977C144.637 97.5041 146.268 99.1307 148.28 99.1307Z" fill="white"/>
<path d="M135.272 97.3652C137.283 97.3652 138.914 95.7387 138.914 93.7322C138.914 91.7257 137.283 90.0991 135.272 90.0991C133.26 90.0991 131.629 91.7257 131.629 93.7322C131.629 95.7387 133.26 97.3652 135.272 97.3652Z" fill="white"/>
<path d="M158.791 103.179C160.802 103.179 162.433 101.552 162.433 99.5455C162.433 97.539 160.802 95.9124 158.791 95.9124C156.779 95.9124 155.148 97.539 155.148 99.5455C155.148 101.552 156.779 103.179 158.791 103.179Z" fill="white"/>
<path d="M143.077 106.708C144.801 106.708 146.199 105.313 146.199 103.593C146.199 101.874 144.801 100.479 143.077 100.479C141.353 100.479 139.955 101.874 139.955 103.593C139.955 105.313 141.353 106.708 143.077 106.708Z" fill="white"/>
<path d="M153.588 110.652C155.312 110.652 156.71 109.258 156.71 107.538C156.71 105.819 155.312 104.424 153.588 104.424C151.864 104.424 150.466 105.819 150.466 107.538C150.466 109.258 151.864 110.652 153.588 110.652Z" fill="white"/>
<path d="M130.171 104.839C131.896 104.839 133.293 103.444 133.293 101.724C133.293 100.005 131.896 98.6105 130.171 98.6105C128.447 98.6105 127.049 100.005 127.049 101.724C127.049 103.444 128.447 104.839 130.171 104.839Z" fill="white"/>
<path d="M137.352 111.795C138.789 111.795 139.954 110.633 139.954 109.2C139.954 107.766 138.789 106.605 137.352 106.605C135.915 106.605 134.751 107.766 134.751 109.2C134.751 110.633 135.915 111.795 137.352 111.795Z" fill="white"/>
<path d="M141.827 118.957C143.092 118.957 144.117 117.934 144.117 116.673C144.117 115.412 143.092 114.39 141.827 114.39C140.563 114.39 139.538 115.412 139.538 116.673C139.538 117.934 140.563 118.957 141.827 118.957Z" fill="white"/>
<path d="M136.312 120.411C137.346 120.411 138.185 119.574 138.185 118.542C138.185 117.51 137.346 116.674 136.312 116.674C135.277 116.674 134.438 117.51 134.438 118.542C134.438 119.574 135.277 120.411 136.312 120.411Z" fill="white"/>
<path d="M131.42 115.012C132.685 115.012 133.71 113.99 133.71 112.728C133.71 111.467 132.685 110.445 131.42 110.445C130.156 110.445 129.131 111.467 129.131 112.728C129.131 113.99 130.156 115.012 131.42 115.012Z" fill="white"/>
<path d="M124.345 110.03C125.782 110.03 126.946 108.868 126.946 107.435C126.946 106.002 125.782 104.84 124.345 104.84C122.908 104.84 121.743 106.002 121.743 107.435C121.743 108.868 122.908 110.03 124.345 110.03Z" fill="white"/>
<path d="M124.239 90.5139C125.676 90.5139 126.841 89.3521 126.841 87.9189C126.841 86.4857 125.676 85.3239 124.239 85.3239C122.803 85.3239 121.638 86.4857 121.638 87.9189C121.638 89.3521 122.803 90.5139 124.239 90.5139Z" fill="white"/>
<path d="M125.384 81.3799C126.649 81.3799 127.674 80.3574 127.674 79.0962C127.674 77.835 126.649 76.8126 125.384 76.8126C124.12 76.8126 123.095 77.835 123.095 79.0962C123.095 80.3574 124.12 81.3799 125.384 81.3799Z" fill="white"/>
<path d="M127.882 73.906C128.917 73.906 129.756 73.0695 129.756 72.0376C129.756 71.0057 128.917 70.1691 127.882 70.1691C126.848 70.1691 126.009 71.0057 126.009 72.0376C126.009 73.0695 126.848 73.906 127.882 73.906Z" fill="white"/>
<path d="M123.511 70.3776C124.776 70.3776 125.801 69.3552 125.801 68.0939C125.801 66.8327 124.776 65.8103 123.511 65.8103C122.247 65.8103 121.222 66.8327 121.222 68.0939C121.222 69.3552 122.247 70.3776 123.511 70.3776Z" fill="white"/>
<path d="M147.76 115.738C149.196 115.738 150.361 114.576 150.361 113.143C150.361 111.71 149.196 110.548 147.76 110.548C146.323 110.548 145.158 111.71 145.158 113.143C145.158 114.576 146.323 115.738 147.76 115.738Z" fill="white"/>
<path d="M117.579 67.3672C119.016 67.3672 120.181 66.2053 120.181 64.7721C120.181 63.3389 119.016 62.1771 117.579 62.1771C116.143 62.1771 114.978 63.3389 114.978 64.7721C114.978 66.2053 116.143 67.3672 117.579 67.3672Z" fill="white"/>
<path d="M119.349 78.3705C120.785 78.3705 121.95 77.2087 121.95 75.7755C121.95 74.3423 120.785 73.1805 119.349 73.1805C117.912 73.1805 116.747 74.3423 116.747 75.7755C116.747 77.2087 117.912 78.3705 119.349 78.3705Z" fill="white"/>
<path d="M116.435 88.8539C118.16 88.8539 119.558 87.4597 119.558 85.7399C119.558 84.02 118.16 82.6258 116.435 82.6258C114.711 82.6258 113.313 84.02 113.313 85.7399C113.313 87.4597 114.711 88.8539 116.435 88.8539Z" fill="white"/>
<path d="M106.964 88.8533C108.975 88.8533 110.606 87.2267 110.606 85.2202C110.606 83.2137 108.975 81.5871 106.964 81.5871C104.952 81.5871 103.321 83.2137 103.321 85.2202C103.321 87.2267 104.952 88.8533 106.964 88.8533Z" fill="white"/>
<path d="M95.9335 91.3457C98.2326 91.3457 100.096 89.4868 100.096 87.1936C100.096 84.9005 98.2326 83.0416 95.9335 83.0416C93.6345 83.0416 91.7708 84.9005 91.7708 87.1936C91.7708 89.4868 93.6345 91.3457 95.9335 91.3457Z" fill="white"/>
<path d="M83.8613 97.263C86.5627 97.263 88.7526 95.0787 88.7526 92.3843C88.7526 89.6899 86.5627 87.5056 83.8613 87.5056C81.1599 87.5056 78.97 89.6899 78.97 92.3843C78.97 95.0787 81.1599 97.263 83.8613 97.263Z" fill="white"/>
<path d="M71.3727 107.227C74.5913 107.227 77.2006 104.625 77.2006 101.414C77.2006 98.2038 74.5913 95.6013 71.3727 95.6013C68.154 95.6013 65.5447 98.2038 65.5447 101.414C65.5447 104.625 68.154 107.227 71.3727 107.227Z" fill="white"/>
<path d="M78.9709 85.1176C81.6723 85.1176 83.8622 82.9333 83.8622 80.2389C83.8622 77.5445 81.6723 75.3603 78.9709 75.3603C76.2695 75.3603 74.0797 77.5445 74.0797 80.2389C74.0797 82.9333 76.2695 85.1176 78.9709 85.1176Z" fill="white"/>
<path d="M91.0415 79.2003C93.3406 79.2003 95.2043 77.3413 95.2043 75.0482C95.2043 72.7551 93.3406 70.8962 91.0415 70.8962C88.7425 70.8962 86.8787 72.7551 86.8787 75.0482C86.8787 77.3413 88.7425 79.2003 91.0415 79.2003Z" fill="white"/>
<path d="M89.272 68.197C91.5711 68.197 93.4348 66.338 93.4348 64.0449C93.4348 61.7518 91.5711 59.8928 89.272 59.8928C86.973 59.8928 85.1093 61.7518 85.1093 64.0449C85.1093 66.338 86.973 68.197 89.272 68.197Z" fill="white"/>
<path d="M100.304 65.7061C102.316 65.7061 103.947 64.0795 103.947 62.073C103.947 60.0665 102.316 58.44 100.304 58.44C98.2925 58.44 96.6617 60.0665 96.6617 62.073C96.6617 64.0795 98.2925 65.7061 100.304 65.7061Z" fill="white"/>
<path d="M109.774 65.7062C111.498 65.7062 112.896 64.312 112.896 62.5922C112.896 60.8723 111.498 59.4781 109.774 59.4781C108.049 59.4781 106.651 60.8723 106.651 62.5922C106.651 64.312 108.049 65.7062 109.774 65.7062Z" fill="white"/>
<path d="M111.543 76.7083C113.268 76.7083 114.665 75.3141 114.665 73.5943C114.665 71.8744 113.268 70.4802 111.543 70.4802C109.819 70.4802 108.421 71.8744 108.421 73.5943C108.421 75.3141 109.819 76.7083 111.543 76.7083Z" fill="white"/>
<path d="M102.073 76.8133C104.085 76.8133 105.716 75.1868 105.716 73.1803C105.716 71.1738 104.085 69.5472 102.073 69.5472C100.062 69.5472 98.4308 71.1738 98.4308 73.1803C98.4308 75.1868 100.062 76.8133 102.073 76.8133Z" fill="white"/>
<path d="M91.77 104.424C92.8046 104.424 93.6432 103.588 93.6432 102.556C93.6432 101.524 92.8046 100.687 91.77 100.687C90.7354 100.687 89.8967 101.524 89.8967 102.556C89.8967 103.588 90.7354 104.424 91.77 104.424Z" fill="white"/>
<path d="M99.2633 103.491C100.528 103.491 101.553 102.468 101.553 101.207C101.553 99.9457 100.528 98.9233 99.2633 98.9233C97.9989 98.9233 96.9738 99.9457 96.9738 101.207C96.9738 102.468 97.9989 103.491 99.2633 103.491Z" fill="white"/>
<path d="M107.484 100.377C108.921 100.377 110.086 99.2153 110.086 97.7821C110.086 96.3489 108.921 95.1871 107.484 95.1871C106.047 95.1871 104.883 96.3489 104.883 97.7821C104.883 99.2153 106.047 100.377 107.484 100.377Z" fill="white"/>
<path d="M109.462 108.68C111.186 108.68 112.584 107.286 112.584 105.566C112.584 103.846 111.186 102.452 109.462 102.452C107.737 102.452 106.339 103.846 106.339 105.566C106.339 107.286 107.737 108.68 109.462 108.68Z" fill="white"/>
<path d="M99.4722 110.652C100.909 110.652 102.074 109.49 102.074 108.057C102.074 106.624 100.909 105.462 99.4722 105.462C98.0353 105.462 96.8704 106.624 96.8704 108.057C96.8704 109.49 98.0353 110.652 99.4722 110.652Z" fill="white"/>
<path d="M90.6251 110.548C91.8896 110.548 92.9146 109.526 92.9146 108.264C92.9146 107.003 91.8896 105.981 90.6251 105.981C89.3606 105.981 88.3356 107.003 88.3356 108.264C88.3356 109.526 89.3606 110.548 90.6251 110.548Z" fill="white"/>
<path d="M90.7287 117.711C92.1656 117.711 93.3304 116.549 93.3304 115.116C93.3304 113.683 92.1656 112.521 90.7287 112.521C89.2918 112.521 88.127 113.683 88.127 115.116C88.127 116.549 89.2918 117.711 90.7287 117.711Z" fill="white"/>
<path d="M101.344 119.06C103.069 119.06 104.466 117.666 104.466 115.946C104.466 114.226 103.069 112.832 101.344 112.832C99.62 112.832 98.2222 114.226 98.2222 115.946C98.2222 117.666 99.62 119.06 101.344 119.06Z" fill="white"/>
<path d="M113.73 117.711C115.741 117.711 117.372 116.084 117.372 114.078C117.372 112.071 115.741 110.445 113.73 110.445C111.718 110.445 110.087 112.071 110.087 114.078C110.087 116.084 111.718 117.711 113.73 117.711Z" fill="white"/>
<path d="M121.013 126.741C123.312 126.741 125.176 124.882 125.176 122.589C125.176 120.296 123.312 118.437 121.013 118.437C118.714 118.437 116.85 120.296 116.85 122.589C116.85 124.882 118.714 126.741 121.013 126.741Z" fill="white"/>
<path d="M105.716 127.987C107.727 127.987 109.358 126.361 109.358 124.354C109.358 122.348 107.727 120.721 105.716 120.721C103.704 120.721 102.073 122.348 102.073 124.354C102.073 126.361 103.704 127.987 105.716 127.987Z" fill="white"/>
<path d="M97.0775 135.045C99.0892 135.045 100.72 133.419 100.72 131.412C100.72 129.406 99.0892 127.779 97.0775 127.779C95.0658 127.779 93.4351 129.406 93.4351 131.412C93.4351 133.419 95.0658 135.045 97.0775 135.045Z" fill="white"/>
<path d="M104.258 144.18C106.557 144.18 108.421 142.322 108.421 140.028C108.421 137.735 106.557 135.876 104.258 135.876C101.959 135.876 100.095 137.735 100.095 140.028C100.095 142.322 101.959 144.18 104.258 144.18Z" fill="white"/>
<path d="M123.408 145.842C126.109 145.842 128.299 143.657 128.299 140.963C128.299 138.269 126.109 136.084 123.408 136.084C120.706 136.084 118.516 138.269 118.516 140.963C118.516 143.657 120.706 145.842 123.408 145.842Z" fill="white"/>
<path d="M112.896 137.121C115.195 137.121 117.059 135.262 117.059 132.969C117.059 130.676 115.195 128.817 112.896 128.817C110.597 128.817 108.733 130.676 108.733 132.969C108.733 135.262 110.597 137.121 112.896 137.121Z" fill="white"/>
<path d="M131.421 135.462C134.123 135.462 136.313 133.278 136.313 130.583C136.313 127.889 134.123 125.704 131.421 125.704C128.72 125.704 126.53 127.889 126.53 130.583C126.53 133.278 128.72 135.462 131.421 135.462Z" fill="white"/>
<path d="M92.7064 126.119C94.4307 126.119 95.8285 124.725 95.8285 123.005C95.8285 121.285 94.4307 119.891 92.7064 119.891C90.9821 119.891 89.5843 121.285 89.5843 123.005C89.5843 124.725 90.9821 126.119 92.7064 126.119Z" fill="white"/>
<path d="M215.424 66.1965H208.278V128.848H215.424V66.1965Z" fill="white"/>
<path d="M238.425 97.4719C238.425 79.9166 253.137 65.049 270.438 65.049C287.839 65.049 302.34 79.8059 302.34 97.4719C302.34 115.138 287.739 129.895 270.438 129.895C253.237 129.995 238.425 115.138 238.425 97.4719ZM295.195 97.4719C295.195 83.5505 283.905 71.7027 270.438 71.7027C256.97 71.7027 245.58 83.5505 245.58 97.4719C245.58 111.504 256.97 123.342 270.438 123.342C283.905 123.342 295.195 111.504 295.195 97.4719Z" fill="white"/>
<path d="M339.009 72.9509H317.985V66.1965H367.089V72.9509H346.054V128.848H338.909L339.009 72.9509Z" fill="white"/>
<path d="M404.58 74.9238L380.857 128.848H373.089L399.091 69.7297C400.024 67.5454 402.202 66.1965 404.48 66.1965C406.858 66.1965 408.936 67.5454 409.869 69.7297L435.87 128.848H428.103L404.58 74.9238Z" fill="white"/>
</g>
<defs>
<clipPath id="clip0_4712_3816">
<rect width="393.191" height="129.268" fill="white" transform="translate(52.0793 32.7319)"/>
</clipPath>
</defs>
</svg>
